<svg width="237" height="222" viewBox="0 0 237 222" fill="none" xmlns="http://www.w3.org/2000/svg">
<path d="M10.368 95V128.168L7.536 125.432H34.656V131H4.032V95H10.368ZM56.0801 131.672C51.9841 131.672 48.3841 130.888 45.2801 129.32C42.1761 127.752 39.7601 125.576 38.0321 122.792C36.3041 119.976 35.4401 116.712 35.4401 113C35.4401 109.288 36.3041 106.04 38.0321 103.256C39.7601 100.44 42.1761 98.248 45.2801 96.68C48.3841 95.112 51.9841 94.328 56.0801 94.328C60.1761 94.328 63.7761 95.112 66.8801 96.68C69.9841 98.248 72.4001 100.44 74.1281 103.256C75.8561 106.04 76.7201 109.288 76.7201 113C76.7201 116.712 75.8561 119.976 74.1281 122.792C72.4001 125.576 69.9841 127.752 66.8801 129.32C63.7761 130.888 60.1761 131.672 56.0801 131.672ZM56.0801 126.008C58.9921 126.008 61.5041 125.48 63.6161 124.424C65.7281 123.368 67.3601 121.864 68.5121 119.912C69.6961 117.96 70.2881 115.656 70.2881 113C70.2881 110.344 69.6961 108.04 68.5121 106.088C67.3601 104.136 65.7281 102.632 63.6161 101.576C61.5041 100.52 58.9921 99.992 56.0801 99.992C53.2001 99.992 50.6881 100.52 48.5441 101.576C46.4321 102.632 44.7841 104.136 43.6001 106.088C42.4481 108.04 41.8721 110.344 41.8721 113C41.8721 115.656 42.4481 117.96 43.6001 119.912C44.7841 121.864 46.4321 123.368 48.5441 124.424C50.6881 125.48 53.2001 126.008 56.0801 126.008ZM118.924 115.352C118.892 117.592 118.46 119.704 117.628 121.688C116.796 123.64 115.612 125.368 114.076 126.872C112.54 128.376 110.668 129.56 108.46 130.424C106.284 131.256 103.788 131.672 100.972 131.672C98.1238 131.672 95.4838 131.24 93.0518 130.376C90.6198 129.512 88.4918 128.28 86.6678 126.68C84.8758 125.048 83.4838 123.08 82.4918 120.776C81.4998 118.472 81.0038 115.88 81.0038 113C81.0038 110.12 81.4998 107.528 82.4918 105.224C83.5158 102.92 84.9398 100.968 86.7638 99.368C88.5878 97.736 90.7318 96.488 93.1958 95.624C95.6598 94.76 98.3638 94.328 101.308 94.328C104.988 94.328 108.204 94.936 110.956 96.152C113.74 97.336 115.98 98.968 117.676 101.048C119.372 103.128 120.412 105.512 120.796 108.2H114.364C114.012 106.504 113.244 105.032 112.06 103.784C110.908 102.536 109.42 101.576 107.596 100.904C105.772 100.232 103.66 99.896 101.26 99.896C98.4438 99.896 95.9958 100.424 93.9158 101.48C91.8678 102.504 90.2678 103.992 89.1158 105.944C87.9958 107.896 87.4358 110.248 87.4358 113C87.4358 115.752 88.0118 118.12 89.1638 120.104C90.3478 122.088 92.0118 123.608 94.1558 124.664C96.2998 125.72 98.8278 126.248 101.74 126.248C104.556 126.248 107.02 125.768 109.132 124.808C111.244 123.848 112.908 122.52 114.124 120.824C115.34 119.096 115.996 117.096 116.092 114.824L118.924 115.352ZM102.988 118.088V113.288H121.18V131H116.476L115.708 116.072L117.196 118.088H102.988ZM142.688 131V95H149.024V125.672L147.104 124.472L171.2 95H178.064L148.352 131H142.688ZM159.824 112.904L164.288 108.536L178.592 131H171.344L159.824 112.904ZM187.426 122.744V117.512H212.578V122.744H187.426ZM204.13 95L221.41 131H214.642L198.946 97.4H201.394L185.698 131H178.93L196.21 95H204.13Z" fill="black"/>
<path d="M128.298 95H134.634V131H128.298V95Z" fill="#AA00FF"/>
<path d="M137.304 12C141.4 12 144.984 12.752 148.056 14.256C151.16 15.76 153.576 17.872 155.304 20.592C157.032 23.28 157.896 26.416 157.896 30C157.896 33.584 157.032 36.736 155.304 39.456C153.576 42.144 151.16 44.24 148.056 45.744C144.984 47.248 141.4 48 137.304 48H121.032V12H137.304ZM127.368 45.792L123.864 42.432H137.736C140.488 42.432 142.888 41.92 144.936 40.896C147.016 39.84 148.616 38.384 149.736 36.528C150.888 34.64 151.464 32.464 151.464 30C151.464 27.504 150.888 25.328 149.736 23.472C148.616 21.616 147.016 20.176 144.936 19.152C142.888 18.096 140.488 17.568 137.736 17.568H123.864L127.368 14.208V45.792Z" fill="#AA00FF"/>
<path d="M121.832 83.744V78.512H146.984V83.744H121.832ZM138.536 56L155.816 92H149.048L133.352 58.4H135.8L120.104 92H113.336L130.616 56H138.536Z" fill="#AA00FF"/>
<path d="M129.368 141V174.168L126.536 171.432H153.656V177H123.032V141H129.368Z" fill="#AA00FF"/>
<path d="M130.76 222V204.816H137.096V222H130.76ZM113.768 186H120.92L135.608 204.432H132.2L146.888 186H154.04L135.944 208.704L131.912 208.752L113.768 186Z" fill="#AA00FF"/>
<path d="M16.104 27.744H41.976V33.312H16.104V27.744ZM42.744 12V17.568H15.912L19.368 13.968V48H13.032V12H42.744ZM77.3153 27.36V32.64H52.1633V27.36H77.3153ZM56.3393 30L53.7953 46.08L50.7713 42.528H78.7073V48H47.3153L50.1953 30L47.3153 12H78.4673V17.472H50.7713L53.7953 13.92L56.3393 30ZM114.065 27.36V32.64H88.9133V27.36H114.065ZM93.0893 30L90.5453 46.08L87.5213 42.528H115.457V48H84.0653L86.9453 30L84.0653 12H115.217V17.472H87.5213L90.5453 13.92L93.0893 30Z" fill="black"/>
<path d="M158.824 36.288H165.256C165.448 37.728 166.04 38.992 167.032 40.08C168.056 41.168 169.4 42.016 171.064 42.624C172.728 43.2 174.648 43.488 176.824 43.488C180.056 43.488 182.616 42.992 184.504 42C186.392 40.976 187.336 39.6 187.336 37.872C187.336 36.464 186.792 35.408 185.704 34.704C184.616 34 182.648 33.472 179.8 33.12L172.024 32.112C167.672 31.536 164.504 30.464 162.52 28.896C160.568 27.296 159.592 25.04 159.592 22.128C159.592 19.92 160.248 18.016 161.56 16.416C162.904 14.784 164.792 13.536 167.224 12.672C169.656 11.776 172.504 11.328 175.768 11.328C179 11.328 181.864 11.808 184.36 12.768C186.856 13.728 188.84 15.072 190.312 16.8C191.816 18.496 192.632 20.496 192.76 22.8H186.328C186.168 21.52 185.624 20.416 184.696 19.488C183.8 18.56 182.584 17.84 181.048 17.328C179.512 16.784 177.704 16.512 175.624 16.512C172.68 16.512 170.328 16.992 168.568 17.952C166.808 18.912 165.928 20.224 165.928 21.888C165.928 23.168 166.44 24.16 167.464 24.864C168.52 25.536 170.344 26.048 172.936 26.4L180.808 27.504C184.04 27.952 186.584 28.56 188.44 29.328C190.328 30.064 191.672 31.072 192.472 32.352C193.272 33.6 193.672 35.216 193.672 37.2C193.672 39.504 192.968 41.52 191.56 43.248C190.152 44.976 188.168 46.32 185.608 47.28C183.08 48.208 180.12 48.672 176.728 48.672C173.272 48.672 170.216 48.16 167.56 47.136C164.936 46.08 162.856 44.624 161.32 42.768C159.784 40.912 158.952 38.752 158.824 36.288Z" fill="black"/>
</svg>
